<svg xmlns="http://www.w3.org/2000/svg" version="1.1" xmlns:xlink="http://www.w3.org/1999/xlink" xmlns:svgjs="http://svgjs.dev/svgjs" viewBox="0 0 1920 1080"><rect width="1920" height="1080" fill="#f3cf04"></rect><g transform="matrix(7.04171909509728e-17,1.15,-1.15,7.04171909509728e-17,1567.3766746520996,-548.3331758499144)"><path d="M0,-1080C-3.5075324492829716,-965.0380046044374,-17.733339043128495,-592.8394621321136,-21.04519469569783,-390.2280276266247C-24.357050348267165,-187.61659312113576,-29.038674526818518,-62.160126833449766,-19.87113391541601,135.6686070329335C-10.7035933040135,333.4973408993168,35.06289683270978,552.7714007064536,33.96004897271723,796.7443755716748C32.85720111272468,1040.717350436896,-20.828212913251775,1372.2971854862064,-26.488221075371314,1599.5064562242605C-32.14822923749085,1826.7157269623146,-4.414703512561886,2066.58440937071,0,2160L 1920 2160 L 1920 -1080 Z" fill="url(&quot;#SvgjsLinearGradient1036&quot;)"></path><path d="M192,-1080C197.54425929061816,-986.7887887569697,209.7390239841312,-737.5062081646419,225.26555574370897,-520.7327325418179C240.79208750328675,-303.9592569189939,282.2586158709656,-24.988612579717113,285.15919055746673,220.64085373694417C288.05976524396783,466.2703200536055,260.7156715960956,748.6226730768843,242.66900386271567,953.0440653581497C224.62233612933574,1157.4654576394153,185.3240181343064,1246.0098849842284,176.87918415718713,1447.1692074245368C168.43435018006784,1648.3285298648452,189.47986402619784,2041.1948679040895,192,2160L 1920 2160 L 1920 -1080 Z" fill="url(&quot;#SvgjsLinearGradient1037&quot;)"></path><path d="M384,-1080C392.8435379172182,-924.3073256598282,418.8455870301866,-421.4603616885033,437.0612275033091,-145.843953958969C455.2768679764316,129.77245377056533,482.5302196837699,303.2106973977763,493.29384283873486,573.698446377206C504.05746599369985,844.1861953566356,519.8586069062216,1212.6989476471435,501.64296643309905,1477.0825399176092C483.42732595997654,1741.4661321880749,403.6071610721832,2046.1804233196015,384,2160L 1920 2160 L 1920 -1080 Z" fill="url(&quot;#SvgjsLinearGradient1038&quot;)"></path><path d="M576,-1080C563.7783653421302,-934.795310583934,513.7869079834134,-458.03462247177106,502.67019205278126,-208.77186350360364C491.5534761221492,40.49089546456378,508.24278322330656,142.66824711895396,509.2997044162077,415.57655380900445C510.35662560910885,688.484860499055,497.8950032795559,1137.9407356048666,509.01171921018795,1428.6779766366992C520.12843514082,1719.4152176685318,564.8352865350313,2038.1129961061165,576,2160L 1920 2160 L 1920 -1080 Z" fill="url(&quot;#SvgjsLinearGradient1039&quot;)"></path><path d="M768,-1080C748.839774250543,-995.8406920890135,637.8138909583297,-760.7214095501917,653.0386455032576,-575.0441525340807C668.2634000481855,-389.36689551796974,845.1001102531458,-165.37646470308337,859.3485272695675,34.06354209666597C873.5969442859893,233.5035488964153,750.3182324164089,445.15186950292,738.529147601788,621.5958882644154C726.7400627871672,798.0399070259108,790.6995988434032,928.878337254109,788.6140183818422,1092.7276546656383C786.5284379202812,1256.5769720771675,729.4513345627288,1426.8130685111971,726.0156648324217,1604.6917927335908C722.5799951021147,1782.5705169559844,761.0026108054036,2067.4486321222653,768,2160L 1920 2160 L 1920 -1080 Z" fill="url(&quot;#SvgjsLinearGradient1040&quot;)"></path><path d="M960,-1080C978.5348472296336,-986.8987231431172,1067.2370341588357,-696.6215839768618,1071.2090833778016,-521.3923388587035C1075.1811325967674,-346.16309374054526,982.3520080018512,-169.11799480264042,983.8322953137949,-28.624529291050465C985.3125826257386,111.8689362205395,1088.4257406476033,171.22444448746208,1080.090807249464,321.56845421083614C1071.7558738513246,471.9124639342102,940.2173495170101,726.3732676844169,933.8226949249588,873.4395290491939C927.4280403329075,1020.5057904139709,1057.0669772994315,1061.397034244684,1041.7228796971563,1203.9660223994983C1026.378782094881,1346.5350105543127,855.3785892608325,1569.5144617113306,841.7581093113065,1728.8534579780808C828.1376293617805,1888.192454244831,940.2930182185511,2088.142242996347,960,2160L 1920 2160 L 1920 -1080 Z" fill="url(&quot;#SvgjsLinearGradient1041&quot;)"></path><path d="M1152,-1080C1142.21332040598,-981.371199225508,1075.643117630404,-703.6938692608285,1093.2799224358805,-488.22719535304833C1110.916727241357,-272.7605214452682,1229.720375269083,-32.72369490844821,1257.8208288328588,212.80004344668077C1285.9212823966345,458.3237818018098,1291.0416186940852,749.3571884921411,1261.8826438185351,984.9152347777256C1232.7236689429851,1220.4732810633102,1101.1807535493149,1430.300860289809,1082.866979579559,1626.148321160188C1064.5532056098032,1821.9957820305672,1140.4778299299264,2071.024720193365,1152,2160L 1920 2160 L 1920 -1080 Z" fill="url(&quot;#SvgjsLinearGradient1042&quot;)"></path><path d="M1344,-1080C1356.6650492125232,-967.8549966271357,1437.863011593885,-604.4387083738565,1419.9902952751388,-407.1299797628145C1402.1175789563927,-209.82125115177257,1254.9703809750686,-117.23092645159707,1236.7637020875238,103.85237166625177C1218.557023199979,324.9356697841006,1286.415503525467,670.9828498695709,1310.750221949871,919.3698089442785C1335.084940374275,1167.756768018986,1377.2303829589252,1387.4024276052096,1382.7720126339468,1594.1741261144966C1388.3136423089684,1800.9458246237837,1350.4620021056578,2065.6956876857494,1344,2160L 1920 2160 L 1920 -1080 Z" fill="url(&quot;#SvgjsLinearGradient1043&quot;)"></path><path d="M1536,-1080C1517.2112957357947,-985.6281630379419,1415.4528861041433,-728.3970806714576,1423.267774414768,-513.7689782276519C1431.0826627253925,-299.14087578384624,1549.7094408026642,-43.14357225917516,1582.8893298637472,207.76861466283395C1616.0692189248302,458.68080158484304,1620.1523607318031,779.6506756221316,1622.3471087812657,991.7041433044027C1624.5418568307282,1203.7576109866736,1610.4490029573994,1285.3734446405272,1596.057818160522,1480.08942075646C1581.6666333636445,1674.8053968723927,1546.009636360087,2046.6815701260766,1536,2160L 1920 2160 L 1920 -1080 Z" fill="url(&quot;#SvgjsLinearGradient1044&quot;)"></path><path d="M1728,-1080C1710.331314709956,-998.2429004597404,1625.1623052883886,-772.4642879781564,1621.9878882597352,-589.4574027584426C1618.8134712310818,-406.45051753872883,1689.7579699470084,-177.50448470624568,1708.95349782808,18.04131131828302C1728.1490257091514,213.58710734281172,1739.7484768029367,392.81952769373834,1737.1610555461643,583.8173733887295C1734.573634289392,774.8152190837206,1682.28889560573,981.850987125415,1693.428970287445,1164.02838548823C1704.5690449691601,1346.205783851045,1798.2396653510286,1510.8864944803242,1804.0015036364543,1676.8817635656192C1809.76334192188,1842.877032650914,1740.6669172727425,2079.4802939276033,1728,2160L 1920 2160 L 1920 -1080 Z" fill="url(&quot;#SvgjsLinearGradient1045&quot;)"></path></g><defs><linearGradient x1="0.1" y1="0" x2="0" y2="1" id="SvgjsLinearGradient1036"><stop stop-color="#f3cf04" offset="0"></stop><stop stop-color="#f3a704" offset="0"></stop></linearGradient><linearGradient x1="0.1" y1="0" x2="0" y2="1" id="SvgjsLinearGradient1037"><stop stop-color="#cdae03" offset="0"></stop><stop stop-color="#cd8c03" offset="0.1"></stop></linearGradient><linearGradient x1="0.1" y1="0" x2="0" y2="1" id="SvgjsLinearGradient1038"><stop stop-color="#a68e03" offset="0"></stop><stop stop-color="#a67303" offset="0.2"></stop></linearGradient><linearGradient x1="0.1" y1="0" x2="0" y2="1" id="SvgjsLinearGradient1039"><stop stop-color="#806d02" offset="0"></stop><stop stop-color="#805802" offset="0.3"></stop></linearGradient><linearGradient x1="0.1" y1="0" x2="0" y2="1" id="SvgjsLinearGradient1040"><stop stop-color="#5a4d01" offset="0"></stop><stop stop-color="#5a3e01" offset="0.4"></stop></linearGradient><linearGradient x1="0.1" y1="0" x2="0" y2="1" id="SvgjsLinearGradient1041"><stop stop-color="#342c01" offset="0"></stop><stop stop-color="#342301" offset="0.5"></stop></linearGradient><linearGradient x1="0.1" y1="0" x2="0" y2="1" id="SvgjsLinearGradient1042"><stop stop-color="#0d0b00" offset="0"></stop><stop stop-color="#0d0900" offset="0.6"></stop></linearGradient><linearGradient x1="0.1" y1="0" x2="0" y2="1" id="SvgjsLinearGradient1043"><stop stop-color="#000000" offset="0"></stop><stop stop-color="#000000" offset="0.7"></stop></linearGradient><linearGradient x1="0.1" y1="0" x2="0" y2="1" id="SvgjsLinearGradient1044"><stop stop-color="#000000" offset="0"></stop><stop stop-color="#000000" offset="0.8"></stop></linearGradient><linearGradient x1="0.1" y1="0" x2="0" y2="1" id="SvgjsLinearGradient1045"><stop stop-color="#000000" offset="0"></stop><stop stop-color="#000000" offset="0.9"></stop></linearGradient></defs></svg>