<svg xmlns="http://www.w3.org/2000/svg" version="1.1" xmlns:xlink="http://www.w3.org/1999/xlink" xmlns:svgjs="http://svgjs.dev/svgjs" viewBox="0 0 1920 1080"><rect width="1920" height="1080" fill="#f3cf04"></rect><g transform="matrix(7.04171909509728e-17,1.15,-1.15,7.04171909509728e-17,1562.345012664795,-542.546764564514)"><path d="M0,-1080C-1.6808492269839992,-1012.3983440128272,-20.35576368390332,-839.2158696465204,-10.085095361903996,-674.3900640769633C0.1855729600953282,-509.5642585074062,57.43753248345522,-259.4353788850762,61.62400993199594,-91.04516658265715C65.81048738053666,77.34504571976191,11.121674205125117,210.20641902458408,15.033769329340316,335.951209737551C18.945864453555515,461.6960004505179,68.27663106216971,523.6101434115506,85.09658067728714,663.4235776951441C101.91653029240456,803.2370119787377,135.57585191204126,994.5650508471072,115.95346702004485,1174.8318154391125C96.33108212804844,1355.0985800311178,-13.312150838017203,1580.8294678203613,-32.637728674691346,1745.024165247176C-51.96330651136549,1909.2188626739905,-5.439621445781891,2090.837360874529,0,2160L 1920 2160 L 1920 -1080 Z" fill="url(&quot;#SvgjsLinearGradient1026&quot;)"></path><path d="M192,-1080C178.29600439182673,-1021.9336574536251,114.54398461136059,-907.087297729037,109.77602635096042,-731.6019447217502C105.00806809056026,-556.1165917144634,134.65142379957393,-199.2861366339117,163.39225043759905,-27.08788195627926C192.13307707562416,145.11037272135317,277.3981057470954,148.81909882556192,282.2209861791111,301.58758334404445C287.04386661112676,454.35606786252697,206.18843161109126,742.1576148014626,192.32953302969315,889.5230251546159C178.47063444829504,1036.8884355077691,205.13502613854178,1056.8061840419211,199.06759469072244,1185.780045462964C193.0001632429031,1314.7539068840067,157.10287679123095,1500.9962012580327,155.92494434277722,1663.3661936808721C154.7470118943235,1825.7361861037116,185.9874907237962,2077.227698946812,192,2160L 1920 2160 L 1920 -1080 Z" fill="url(&quot;#SvgjsLinearGradient1027&quot;)"></path><path d="M384,-1080C375.3071199469836,-983.1624114388791,350.7107925868658,-679.3516005237217,331.84271968190166,-498.97446863327457C312.9746467769375,-318.59733674282745,253.14674147906192,-174.28747633431445,270.79156257021504,2.2627913426826467C288.43638366136815,178.81305901967974,400.46462734460096,392.89310039452346,437.7116462288204,560.327137428708C474.9586651130399,727.7611744628927,508.304190913219,809.4206836619239,494.27367587553175,1006.8670135477904C480.2431608378445,1204.3133434336569,371.90750198195246,1552.8162856685387,353.5285560026972,1745.005116743907C335.14961002344194,1937.193947819275,378.9214260004495,2090.8341861239846,384,2160L 1920 2160 L 1920 -1080 Z" fill="url(&quot;#SvgjsLinearGradient1028&quot;)"></path><path d="M576,-1080C574.3710199152096,-1001.6780966732549,561.8285678413015,-797.5075248398776,566.2261194912571,-610.0685800395295C570.6236711412128,-422.6296352391813,602.4799104255649,-139.64175118201769,602.3853098997337,44.633668802088835C602.2907093739025,228.90908878619535,582.7394324201115,305.0982348706135,565.6585163362697,495.58393986510976C548.5776002524279,686.069644859606,505.18419506060565,992.6422614877716,499.8998133966828,1187.547898769066C494.61543173276,1382.4535360503605,521.2688619188464,1502.9424133477205,533.9522263527326,1665.0177635528762C546.6355907866189,1827.093113758032,568.9920377254555,2077.502960592146,576,2160L 1920 2160 L 1920 -1080 Z" fill="url(&quot;#SvgjsLinearGradient1029&quot;)"></path><path d="M768,-1080C768.5047558471263,-990.7957929473141,756.816848124235,-750.858099262285,771.0285350827573,-544.7747576838844C785.2402220412797,-338.6914161054839,850.4593970057572,-73.64087033356307,853.2701217511344,156.50004947040355C856.0808464965116,386.64096927437015,817.5977099993341,611.1992318856899,787.8928835550205,836.0707611399152C758.1880571107068,1060.9422903941406,678.3566436777559,1285.0743518524084,675.0411630852525,1505.7292249957559C671.7256824927491,1726.3840981391033,752.5068605142087,2050.954870832626,768,2160L 1920 2160 L 1920 -1080 Z" fill="url(&quot;#SvgjsLinearGradient1030&quot;)"></path><path d="M960,-1080C964.6355432432546,-997.7880438937285,977.0905493715061,-738.8004928147626,987.8132594595272,-586.7282633623713C998.5359695475483,-434.65603390998,1016.7175339447806,-327.36514278605307,1024.336260528127,-167.5666232856525C1031.9549871114734,-7.768103785251952,1056.9094859612762,226.86330806552968,1033.5256189596055,372.06285364003196C1010.1417519579346,517.2623992145343,883.5143497886314,557.577711359723,884.033058518102,703.6306501613611C884.5517672475727,849.6835889629992,1038.87618244477,1069.078059905202,1036.6378713364293,1248.3804864498609C1034.3995602280886,1427.6829129945197,883.3761704241293,1627.5086238376248,870.6031918680578,1779.4452094293147C857.8302133119863,1931.3817950210046,945.1005319780096,2096.5742015715523,960,2160L 1920 2160 L 1920 -1080 Z" fill="url(&quot;#SvgjsLinearGradient1031&quot;)"></path><path d="M1152,-1080C1134.233688023386,-980.7499569722124,1039.2411938098862,-716.5710261095646,1045.402128140316,-484.49974183327424C1051.563062470746,-252.4284575569839,1189.1337355526512,83.85761732636922,1188.9656059825786,312.4277056577422C1188.797476412506,540.9977939891152,1032.6182986690606,668.5301096578107,1044.3933507198803,886.9207881549637C1056.1684027707001,1105.3114666521167,1241.681476740811,1410.5919079998205,1259.6159182874976,1622.77177664066C1277.5503598341843,1834.9516452814994,1169.9359863812497,2070.4619627734432,1152,2160L 1920 2160 L 1920 -1080 Z" fill="url(&quot;#SvgjsLinearGradient1032&quot;)"></path><path d="M1344,-1080C1356.33671391892,-970.3105177658506,1438.4998915481212,-580.9442118522323,1418.0202835135196,-421.8631065951039C1397.540675478918,-262.78200133797543,1229.4711986627865,-295.6513814682304,1221.1223517923906,-125.51336845722943C1212.7735049219948,44.62464455377156,1348.9179548094528,402.70698745717493,1367.9272022911446,598.964971470902C1386.9364497728363,795.2229554846291,1326.4377482410648,902.1892673959987,1335.1778366825408,1052.0345356251332C1343.9179251240168,1201.8798038542677,1418.8973723870913,1313.3756701165648,1420.3677329400011,1498.0365808457093C1421.838093492911,1682.6974915748538,1356.72795549,2049.6727634742847,1344,2160L 1920 2160 L 1920 -1080 Z" fill="url(&quot;#SvgjsLinearGradient1033&quot;)"></path><path d="M1536,-1080C1522.245446534302,-972.5179166295792,1473.515976851744,-658.4845945052648,1453.4726792058113,-435.10749977747486C1433.4293815598787,-211.7304050496849,1386.226106323426,55.56997778733199,1415.740214124404,260.2625683667398C1445.254321925382,464.9551589461476,1593.5819604532694,591.7110599839978,1630.5573260116803,793.0480436989719C1667.5326915700912,994.3850274139461,1653.3519618101486,1240.4591446064135,1637.5924074748687,1468.2844706565847C1621.8328531395887,1696.109796706756,1552.932067912478,2044.714078442764,1536,2160L 1920 2160 L 1920 -1080 Z" fill="url(&quot;#SvgjsLinearGradient1034&quot;)"></path><path d="M1728,-1080C1736.802079857111,-981.7477028694068,1794.9207054005265,-711.9762827546724,1780.8124791426658,-490.48621721644076C1766.704252884805,-268.9961516782091,1659.3844378459114,14.896831228437492,1643.3506424528366,248.94039322938994C1627.3168470597618,482.9839552303424,1657.3043971633042,702.6955284009554,1684.6097067842172,913.775154789274C1711.9150164051302,1124.8547811775925,1799.9507846423505,1307.7140106908473,1807.1825001783143,1515.4181515593016C1814.414215714278,1723.1222924277558,1741.1970833630523,2052.56969192655,1728,2160L 1920 2160 L 1920 -1080 Z" fill="url(&quot;#SvgjsLinearGradient1035&quot;)"></path></g><defs><linearGradient x1="0.1" y1="0" x2="0" y2="1" id="SvgjsLinearGradient1026"><stop stop-color="#f3cf04" offset="0"></stop><stop stop-color="#f3a704" offset="0"></stop></linearGradient><linearGradient x1="0.1" y1="0" x2="0" y2="1" id="SvgjsLinearGradient1027"><stop stop-color="#fbd608" offset="0"></stop><stop stop-color="#fbad08" offset="0.1"></stop></linearGradient><linearGradient x1="0.1" y1="0" x2="0" y2="1" id="SvgjsLinearGradient1028"><stop stop-color="#fbd814" offset="0"></stop><stop stop-color="#fbb114" offset="0.2"></stop></linearGradient><linearGradient x1="0.1" y1="0" x2="0" y2="1" id="SvgjsLinearGradient1029"><stop stop-color="#fbda20" offset="0"></stop><stop stop-color="#fbb520" offset="0.3"></stop></linearGradient><linearGradient x1="0.1" y1="0" x2="0" y2="1" id="SvgjsLinearGradient1030"><stop stop-color="#fcdc2c" offset="0"></stop><stop stop-color="#fcb92c" offset="0.4"></stop></linearGradient><linearGradient x1="0.1" y1="0" x2="0" y2="1" id="SvgjsLinearGradient1031"><stop stop-color="#fcde38" offset="0"></stop><stop stop-color="#fcbd38" offset="0.5"></stop></linearGradient><linearGradient x1="0.1" y1="0" x2="0" y2="1" id="SvgjsLinearGradient1032"><stop stop-color="#fce044" offset="0"></stop><stop stop-color="#fcc144" offset="0.6"></stop></linearGradient><linearGradient x1="0.1" y1="0" x2="0" y2="1" id="SvgjsLinearGradient1033"><stop stop-color="#fce24f" offset="0"></stop><stop stop-color="#fcc54f" offset="0.7"></stop></linearGradient><linearGradient x1="0.1" y1="0" x2="0" y2="1" id="SvgjsLinearGradient1034"><stop stop-color="#fce45b" offset="0"></stop><stop stop-color="#fcc95b" offset="0.8"></stop></linearGradient><linearGradient x1="0.1" y1="0" x2="0" y2="1" id="SvgjsLinearGradient1035"><stop stop-color="#fce667" offset="0"></stop><stop stop-color="#fccd67" offset="0.9"></stop></linearGradient></defs></svg>